<?xml version="1.0" encoding="utf-8"?>
<!-- Generator: Adobe Illustrator 27.5.0, SVG Export Plug-In . SVG Version: 6.00 Build 0)  -->
<svg version="1.1" id="Ñëîé_1" xmlns="http://www.w3.org/2000/svg" xmlns:xlink="http://www.w3.org/1999/xlink" x="0px" y="0px"
	 viewBox="0 0 566 342.333" style="enable-background:new 0 0 566 342.333;" xml:space="preserve">
<g>
	<rect style="fill:#795AA4;" width="566.218" height="342.333"/>
</g>
<g>
	<g>
		<path style="fill:#513B7E;" d="M252.488,95.457h-8.277v14.862h-8.499V95.457h-24.34l-0.534-2.625
			c0.326-1.869,1.031-4.02,2.114-6.452c1.083-2.433,2.395-4.969,3.938-7.609c1.542-2.64,3.241-5.295,5.095-7.965
			c1.854-2.67,3.708-5.184,5.562-7.542c1.854-2.358,3.633-4.473,5.34-6.341c1.705-1.869,3.196-3.322,4.472-4.361h6.852v36.177h8.277
			V95.457z M235.712,88.738V66.489c0-0.415,0-0.882,0-1.401c0-0.519,0.029-1.061,0.089-1.624c-0.149,0.148-0.253,0.305-0.312,0.467
			c-0.06,0.164-0.164,0.319-0.312,0.468c-0.445,0.444-1.053,1.127-1.825,2.047s-1.624,2.002-2.559,3.248
			c-0.934,1.246-1.929,2.625-2.981,4.139c-1.054,1.513-2.077,3.1-3.07,4.761c-0.995,1.662-1.936,3.353-2.826,5.072
			c-0.89,1.722-1.662,3.412-2.314,5.073H235.712z"/>
		<path style="fill:#513B7E;" d="M299.485,81.351c0,4.657-0.452,8.833-1.357,12.526c-0.905,3.693-2.217,6.815-3.938,9.366
			c-1.721,2.552-3.82,4.502-6.296,5.852c-2.477,1.35-5.288,2.024-8.432,2.024c-3.115,0-5.859-0.631-8.232-1.891
			c-2.374-1.261-4.361-3.1-5.963-5.518c-1.602-2.418-2.811-5.392-3.626-8.922c-0.816-3.53-1.224-7.564-1.224-12.104
			c0-4.924,0.408-9.292,1.224-13.104c0.816-3.812,2.061-7.022,3.738-9.634c1.676-2.61,3.775-4.59,6.296-5.94
			c2.521-1.35,5.473-2.024,8.855-2.024C293.167,51.983,299.485,61.772,299.485,81.351z M290.764,81.974
			c0-7.742-0.89-13.534-2.67-17.376c-1.78-3.842-4.391-5.763-7.832-5.763c-3.679,0-6.452,1.951-8.321,5.852
			c-1.869,3.901-2.803,9.812-2.803,17.732c0,7.297,0.919,12.756,2.759,16.375c1.839,3.619,4.539,5.429,8.099,5.429
			c3.53,0,6.207-1.84,8.032-5.518C289.852,95.027,290.764,89.45,290.764,81.974z"/>
		<path style="fill:#513B7E;" d="M349.064,95.457h-8.276v14.862h-8.499V95.457h-24.341l-0.533-2.625
			c0.326-1.869,1.03-4.02,2.113-6.452s2.396-4.969,3.939-7.609c1.542-2.64,3.24-5.295,5.095-7.965
			c1.854-2.67,3.708-5.184,5.561-7.542c1.854-2.358,3.634-4.473,5.34-6.341c1.706-1.869,3.196-3.322,4.473-4.361h6.853v36.177h8.276
			V95.457z M332.289,88.738V66.489c0-0.415,0-0.882,0-1.401c0-0.519,0.029-1.061,0.089-1.624c-0.149,0.148-0.253,0.305-0.311,0.467
			c-0.06,0.164-0.163,0.319-0.312,0.468c-0.445,0.444-1.054,1.127-1.824,2.047c-0.772,0.92-1.624,2.002-2.559,3.248
			c-0.935,1.246-1.929,2.625-2.982,4.139c-1.054,1.513-2.077,3.1-3.07,4.761c-0.994,1.662-1.935,3.353-2.826,5.072
			c-0.89,1.722-1.661,3.412-2.313,5.073H332.289z"/>
	</g>
	<g>
		<g>
			<path style="fill:#F5F9FC;" d="M250.154,92.457h-8.277v14.862h-8.499V92.457h-24.34l-0.534-2.625
				c0.326-1.869,1.031-4.02,2.114-6.452c1.083-2.433,2.395-4.969,3.938-7.609c1.542-2.64,3.241-5.295,5.095-7.965
				c1.854-2.67,3.708-5.184,5.562-7.542c1.854-2.358,3.633-4.473,5.34-6.341c1.705-1.869,3.196-3.322,4.472-4.361h6.853v36.177
				h8.277V92.457z M233.378,85.738V63.489c0-0.415,0-0.882,0-1.401c0-0.519,0.029-1.061,0.089-1.624
				c-0.149,0.148-0.252,0.305-0.311,0.467c-0.06,0.164-0.164,0.319-0.312,0.468c-0.445,0.444-1.053,1.127-1.825,2.047
				c-0.772,0.92-1.624,2.002-2.559,3.248c-0.934,1.246-1.929,2.625-2.981,4.139c-1.054,1.513-2.077,3.1-3.07,4.761
				c-0.995,1.662-1.936,3.353-2.826,5.072c-0.89,1.722-1.662,3.412-2.314,5.073H233.378z"/>
		</g>
		<g>
			<path style="fill:#F5F9FC;" d="M297.152,78.351c0,4.657-0.453,8.833-1.357,12.526c-0.905,3.693-2.218,6.815-3.938,9.366
				c-1.721,2.552-3.82,4.502-6.296,5.852c-2.477,1.35-5.288,2.024-8.432,2.024c-3.115,0-5.859-0.631-8.232-1.891
				c-2.374-1.261-4.361-3.1-5.963-5.518c-1.602-2.418-2.811-5.392-3.626-8.922c-0.816-3.53-1.224-7.564-1.224-12.104
				c0-4.924,0.408-9.292,1.224-13.104c0.816-3.812,2.062-7.022,3.738-9.634c1.676-2.61,3.775-4.59,6.296-5.94
				c2.521-1.35,5.473-2.024,8.855-2.024C290.833,48.983,297.152,58.772,297.152,78.351z M288.431,78.974
				c0-7.742-0.89-13.534-2.67-17.376c-1.78-3.842-4.391-5.763-7.831-5.763c-3.679,0-6.452,1.951-8.321,5.852
				c-1.869,3.901-2.803,9.812-2.803,17.732c0,7.297,0.919,12.756,2.759,16.375c1.839,3.619,4.538,5.429,8.099,5.429
				c3.53,0,6.207-1.84,8.032-5.518C287.519,92.027,288.431,86.45,288.431,78.974z"/>
		</g>
		<g>
			<path style="fill:#F5F9FC;" d="M346.731,92.457h-8.276v14.862h-8.499V92.457h-24.341l-0.534-2.625
				c0.327-1.869,1.031-4.02,2.114-6.452c1.083-2.433,2.396-4.969,3.939-7.609c1.542-2.64,3.24-5.295,5.095-7.965
				c1.854-2.67,3.708-5.184,5.562-7.542c1.854-2.358,3.634-4.473,5.34-6.341c1.706-1.869,3.196-3.322,4.473-4.361h6.853v36.177
				h8.276V92.457z M329.956,85.738V63.489c0-0.415,0-0.882,0-1.401c0-0.519,0.029-1.061,0.089-1.624
				c-0.149,0.148-0.253,0.305-0.311,0.467c-0.06,0.164-0.163,0.319-0.311,0.468c-0.445,0.444-1.054,1.127-1.824,2.047
				c-0.772,0.92-1.624,2.002-2.559,3.248c-0.935,1.246-1.929,2.625-2.982,4.139c-1.054,1.513-2.077,3.1-3.07,4.761
				c-0.994,1.662-1.936,3.353-2.826,5.072c-0.89,1.722-1.661,3.412-2.313,5.073H329.956z"/>
		</g>
	</g>
	<g>
		<path style="fill:#FFFEFD;" d="M199.447,117.977l-3.066,10.857h-1.491l-2.233-7.936c-0.097-0.338-0.154-0.706-0.175-1.104h-0.03
			c-0.03,0.373-0.096,0.736-0.196,1.09l-2.249,7.95h-1.477l-3.18-10.857h1.4l2.31,8.328c0.096,0.349,0.156,0.712,0.182,1.091h0.038
			c0.024-0.268,0.102-0.631,0.234-1.091l2.4-8.328h1.219l2.302,8.389c0.081,0.288,0.142,0.626,0.182,1.015h0.03
			c0.021-0.262,0.089-0.61,0.204-1.045l2.219-8.358H199.447z"/>
		<path style="fill:#FFFEFD;" d="M207.717,128.834h-1.241v-4.467c0-1.615-0.601-2.424-1.802-2.424c-0.606,0-1.116,0.234-1.53,0.701
			c-0.414,0.467-0.62,1.066-0.62,1.798v4.392h-1.242v-11.479h1.242v5.013h0.03c0.595-0.979,1.443-1.47,2.544-1.47
			c1.746,0,2.619,1.053,2.619,3.158V128.834z"/>
		<path style="fill:#FFFEFD;" d="M213.685,129.016c-1.146,0-2.061-0.362-2.744-1.087c-0.685-0.724-1.026-1.685-1.026-2.881
			c0-1.302,0.356-2.319,1.068-3.051c0.711-0.732,1.673-1.099,2.885-1.099c1.155,0,2.058,0.357,2.706,1.068
			c0.65,0.712,0.974,1.698,0.974,2.96c0,1.237-0.35,2.228-1.049,2.972C215.799,128.644,214.861,129.016,213.685,129.016z
			 M213.776,121.944c-0.798,0-1.429,0.271-1.894,0.814c-0.464,0.543-0.696,1.291-0.696,2.245c0,0.919,0.234,1.643,0.704,2.173
			c0.47,0.53,1.098,0.795,1.886,0.795c0.802,0,1.419-0.26,1.851-0.779c0.432-0.521,0.647-1.26,0.647-2.219
			c0-0.97-0.216-1.717-0.647-2.241C215.195,122.206,214.578,121.944,213.776,121.944z"/>
		<path style="fill:#FFFEFD;" d="M223.158,129.016c-1.145,0-2.06-0.362-2.744-1.087c-0.685-0.724-1.026-1.685-1.026-2.881
			c0-1.302,0.356-2.319,1.068-3.051c0.711-0.732,1.673-1.099,2.885-1.099c1.155,0,2.058,0.357,2.706,1.068
			c0.649,0.712,0.974,1.698,0.974,2.96c0,1.237-0.35,2.228-1.049,2.972C225.272,128.644,224.335,129.016,223.158,129.016z
			 M223.25,121.944c-0.798,0-1.429,0.271-1.894,0.814c-0.464,0.543-0.696,1.291-0.696,2.245c0,0.919,0.234,1.643,0.704,2.173
			c0.47,0.53,1.098,0.795,1.886,0.795c0.802,0,1.419-0.26,1.851-0.779c0.432-0.521,0.647-1.26,0.647-2.219
			c0-0.97-0.216-1.717-0.647-2.241C224.669,122.206,224.052,121.944,223.25,121.944z"/>
		<path style="fill:#FFFEFD;" d="M230.664,127.714h-0.03v4.686h-1.242v-11.319h1.242v1.362h0.03c0.61-1.029,1.504-1.545,2.68-1.545
			c1,0,1.779,0.348,2.34,1.042c0.561,0.693,0.841,1.624,0.841,2.79c0,1.297-0.315,2.336-0.946,3.115
			c-0.632,0.78-1.495,1.17-2.59,1.17C231.983,129.016,231.209,128.582,230.664,127.714z M230.634,124.586v1.083
			c0,0.642,0.208,1.186,0.624,1.632c0.417,0.446,0.945,0.67,1.587,0.67c0.752,0,1.341-0.288,1.768-0.863
			c0.427-0.575,0.64-1.375,0.64-2.4c0-0.862-0.199-1.539-0.598-2.028c-0.399-0.49-0.939-0.735-1.621-0.735
			c-0.722,0-1.302,0.252-1.741,0.754C230.852,123.2,230.634,123.829,230.634,124.586z"/>
		<path style="fill:#FFFEFD;" d="M238.426,128.554v-1.332c0.677,0.499,1.421,0.749,2.234,0.749c1.09,0,1.635-0.363,1.635-1.09
			c0-0.207-0.047-0.383-0.14-0.526c-0.094-0.145-0.22-0.271-0.379-0.383c-0.159-0.11-0.346-0.211-0.561-0.299
			c-0.214-0.088-0.445-0.181-0.692-0.276c-0.344-0.137-0.645-0.273-0.905-0.413c-0.26-0.139-0.477-0.295-0.65-0.469
			c-0.175-0.175-0.306-0.372-0.394-0.595c-0.089-0.222-0.133-0.481-0.133-0.78c0-0.363,0.083-0.685,0.25-0.965
			c0.166-0.28,0.389-0.515,0.666-0.704c0.277-0.189,0.595-0.332,0.95-0.428c0.356-0.096,0.723-0.145,1.102-0.145
			c0.672,0,1.272,0.116,1.802,0.349v1.257c-0.57-0.373-1.227-0.561-1.968-0.561c-0.232,0-0.442,0.027-0.629,0.08
			c-0.187,0.053-0.347,0.127-0.48,0.224c-0.134,0.096-0.237,0.21-0.311,0.344c-0.073,0.134-0.11,0.282-0.11,0.443
			c0,0.202,0.037,0.371,0.11,0.507c0.073,0.137,0.181,0.258,0.321,0.364c0.142,0.105,0.313,0.201,0.516,0.287
			c0.201,0.086,0.432,0.18,0.688,0.28c0.344,0.132,0.651,0.267,0.924,0.405c0.272,0.139,0.505,0.295,0.696,0.47
			c0.192,0.174,0.34,0.374,0.443,0.602c0.104,0.228,0.155,0.497,0.155,0.811c0,0.383-0.085,0.717-0.254,0.999
			c-0.169,0.283-0.395,0.518-0.678,0.704c-0.282,0.187-0.608,0.325-0.977,0.417c-0.368,0.091-0.755,0.136-1.158,0.136
			C239.703,129.016,239.012,128.862,238.426,128.554z"/>
		<path style="fill:#FFFEFD;" d="M246.295,129.001c-0.232,0-0.431-0.084-0.595-0.25c-0.164-0.167-0.246-0.366-0.246-0.599
			c0-0.231,0.082-0.433,0.246-0.602c0.164-0.169,0.362-0.254,0.595-0.254c0.237,0,0.439,0.085,0.605,0.254
			c0.167,0.169,0.25,0.37,0.25,0.602c0,0.232-0.083,0.432-0.25,0.599C246.734,128.917,246.532,129.001,246.295,129.001z"/>
		<path style="fill:#FFFEFD;" d="M250.044,129.001c-0.232,0-0.431-0.084-0.595-0.25c-0.164-0.167-0.246-0.366-0.246-0.599
			c0-0.231,0.082-0.433,0.246-0.602c0.164-0.169,0.362-0.254,0.595-0.254c0.237,0,0.439,0.085,0.605,0.254
			c0.167,0.169,0.25,0.37,0.25,0.602c0,0.232-0.083,0.432-0.25,0.599C250.483,128.917,250.281,129.001,250.044,129.001z"/>
		<path style="fill:#FFFEFD;" d="M253.794,129.001c-0.232,0-0.431-0.084-0.595-0.25c-0.164-0.167-0.246-0.366-0.246-0.599
			c0-0.231,0.082-0.433,0.246-0.602c0.164-0.169,0.362-0.254,0.595-0.254c0.237,0,0.439,0.085,0.605,0.254
			c0.167,0.169,0.25,0.37,0.25,0.602c0,0.232-0.083,0.432-0.25,0.599C254.233,128.917,254.031,129.001,253.794,129.001z"/>
		<path style="fill:#FFFEFD;" d="M258.55,124.731v4.104h-1.272v-10.857h2.982c1.161,0,2.062,0.282,2.7,0.848
			c0.638,0.565,0.957,1.363,0.957,2.393c0,1.03-0.354,1.873-1.064,2.529c-0.709,0.656-1.667,0.984-2.873,0.984H258.55z
			 M258.55,119.127v4.452h1.333c0.878,0,1.548-0.2,2.01-0.602c0.462-0.401,0.693-0.968,0.693-1.7c0-1.434-0.849-2.15-2.544-2.15
			H258.55z"/>
		<path style="fill:#FFFEFD;" d="M271.233,128.834h-1.241v-1.212h-0.03c-0.54,0.93-1.336,1.394-2.386,1.394
			c-0.772,0-1.377-0.204-1.814-0.613c-0.436-0.409-0.654-0.951-0.654-1.628c0-1.448,0.853-2.292,2.559-2.529l2.325-0.325
			c0-1.317-0.533-1.976-1.598-1.976c-0.935,0-1.777,0.318-2.529,0.954v-1.271c0.763-0.484,1.641-0.728,2.635-0.728
			c1.822,0,2.733,0.965,2.733,2.893V128.834z M269.992,124.912l-1.87,0.257c-0.576,0.081-1.01,0.224-1.303,0.428
			c-0.293,0.205-0.439,0.567-0.439,1.087c0,0.379,0.136,0.688,0.405,0.928c0.271,0.239,0.63,0.359,1.079,0.359
			c0.616,0,1.124-0.216,1.525-0.647c0.401-0.432,0.603-0.978,0.603-1.639V124.912z"/>
		<path style="fill:#FFFEFD;" d="M280.578,128.213c0,2.847-1.362,4.271-4.088,4.271c-0.959,0-1.798-0.182-2.514-0.545v-1.242
			c0.873,0.485,1.706,0.728,2.498,0.728c1.908,0,2.862-1.015,2.862-3.044v-0.849h-0.03c-0.591,0.99-1.479,1.484-2.665,1.484
			c-0.965,0-1.74-0.345-2.328-1.033c-0.589-0.689-0.883-1.614-0.883-2.775c0-1.317,0.317-2.364,0.95-3.142
			c0.634-0.777,1.501-1.167,2.602-1.167c1.045,0,1.819,0.42,2.324,1.258h0.03v-1.075h1.241V128.213z M279.337,125.328v-1.144
			c0-0.615-0.208-1.143-0.625-1.582c-0.416-0.439-0.935-0.659-1.556-0.659c-0.768,0-1.368,0.279-1.802,0.837
			c-0.435,0.558-0.651,1.339-0.651,2.344c0,0.863,0.208,1.554,0.625,2.07c0.416,0.518,0.968,0.776,1.654,0.776
			c0.696,0,1.263-0.247,1.699-0.742C279.118,126.735,279.337,126.101,279.337,125.328z"/>
		<path style="fill:#FFFEFD;" d="M289.712,125.268h-5.475c0.02,0.863,0.253,1.529,0.697,1.999c0.443,0.47,1.055,0.704,1.832,0.704
			c0.873,0,1.676-0.288,2.408-0.863v1.166c-0.682,0.495-1.583,0.742-2.703,0.742c-1.096,0-1.956-0.352-2.582-1.057
			c-0.626-0.704-0.939-1.694-0.939-2.972c0-1.206,0.342-2.189,1.026-2.949c0.684-0.76,1.533-1.14,2.548-1.14
			c1.015,0,1.8,0.329,2.355,0.984c0.556,0.656,0.833,1.567,0.833,2.733V125.268z M288.439,124.215
			c-0.005-0.716-0.178-1.274-0.519-1.673c-0.341-0.398-0.814-0.599-1.419-0.599c-0.586,0-1.083,0.21-1.492,0.629
			c-0.408,0.419-0.661,0.967-0.757,1.643H288.439z"/>
		<path style="fill:#FFFEFD;" d="M305.531,128.834h-1.56l-5.588-8.654c-0.141-0.217-0.257-0.444-0.348-0.682h-0.046
			c0.04,0.232,0.061,0.729,0.061,1.492v7.844h-1.271v-10.857h1.65l5.436,8.518c0.227,0.354,0.373,0.596,0.439,0.728h0.03
			c-0.05-0.313-0.075-0.846-0.075-1.598v-7.647h1.271V128.834z"/>
		<path style="fill:#FFFEFD;" d="M311.84,129.016c-1.145,0-2.06-0.362-2.744-1.087c-0.685-0.724-1.026-1.685-1.026-2.881
			c0-1.302,0.356-2.319,1.068-3.051c0.711-0.732,1.673-1.099,2.885-1.099c1.155,0,2.058,0.357,2.706,1.068
			c0.649,0.712,0.974,1.698,0.974,2.96c0,1.237-0.35,2.228-1.049,2.972C313.954,128.644,313.017,129.016,311.84,129.016z
			 M311.932,121.944c-0.798,0-1.429,0.271-1.893,0.814c-0.464,0.543-0.696,1.291-0.696,2.245c0,0.919,0.234,1.643,0.704,2.173
			c0.47,0.53,1.098,0.795,1.886,0.795c0.802,0,1.419-0.26,1.851-0.779c0.432-0.521,0.647-1.26,0.647-2.219
			c0-0.97-0.216-1.717-0.647-2.241C313.351,122.206,312.733,121.944,311.932,121.944z"/>
		<path style="fill:#FFFEFD;" d="M321.67,128.758c-0.293,0.162-0.679,0.243-1.158,0.243c-1.358,0-2.037-0.758-2.037-2.271v-4.589
			h-1.333v-1.06h1.333v-1.894l1.242-0.401v2.295h1.953v1.06h-1.953v4.369c0,0.52,0.088,0.891,0.265,1.112
			c0.177,0.223,0.47,0.334,0.878,0.334c0.313,0,0.583-0.086,0.81-0.258V128.758z"/>
		<path style="fill:#FFFEFD;" d="M334.03,119.127h-4.24v3.756h3.922v1.144h-3.922v4.808h-1.271v-10.857h5.512V119.127z"/>
		<path style="fill:#FFFEFD;" d="M339.551,129.016c-1.145,0-2.061-0.362-2.744-1.087c-0.684-0.724-1.026-1.685-1.026-2.881
			c0-1.302,0.356-2.319,1.068-3.051c0.711-0.732,1.673-1.099,2.885-1.099c1.155,0,2.058,0.357,2.706,1.068
			c0.649,0.712,0.974,1.698,0.974,2.96c0,1.237-0.35,2.228-1.049,2.972C341.665,128.644,340.727,129.016,339.551,129.016z
			 M339.643,121.944c-0.798,0-1.429,0.271-1.894,0.814c-0.464,0.543-0.696,1.291-0.696,2.245c0,0.919,0.234,1.643,0.704,2.173
			c0.47,0.53,1.098,0.795,1.886,0.795c0.802,0,1.419-0.26,1.851-0.779c0.432-0.521,0.647-1.26,0.647-2.219
			c0-0.97-0.216-1.717-0.647-2.241C341.061,122.206,340.444,121.944,339.643,121.944z"/>
		<path style="fill:#FFFEFD;" d="M352.054,128.834h-1.242v-1.227h-0.03c-0.515,0.939-1.313,1.408-2.393,1.408
			c-1.848,0-2.772-1.101-2.772-3.301v-4.634h1.234v4.437c0,1.636,0.626,2.453,1.878,2.453c0.605,0,1.105-0.224,1.495-0.67
			c0.392-0.446,0.587-1.031,0.587-1.753v-4.467h1.242V128.834z"/>
		<path style="fill:#FFFEFD;" d="M361.383,128.834h-1.241v-4.422c0-1.646-0.601-2.469-1.802-2.469c-0.621,0-1.135,0.234-1.541,0.701
			c-0.406,0.467-0.609,1.056-0.609,1.768v4.422h-1.242v-7.753h1.242v1.287h0.03c0.585-0.979,1.434-1.47,2.544-1.47
			c0.848,0,1.496,0.274,1.945,0.822c0.449,0.548,0.674,1.339,0.674,2.373V128.834z"/>
		<path style="fill:#FFFEFD;" d="M370.727,128.834h-1.241v-1.317h-0.03c-0.575,0.999-1.464,1.499-2.665,1.499
			c-0.975,0-1.753-0.347-2.336-1.041c-0.583-0.694-0.875-1.64-0.875-2.836c0-1.281,0.323-2.309,0.97-3.081
			c0.645-0.772,1.507-1.159,2.582-1.159c1.064,0,1.84,0.42,2.324,1.258h0.03v-4.801h1.241V128.834z M369.486,125.328v-1.144
			c0-0.625-0.207-1.155-0.621-1.59c-0.414-0.434-0.938-0.651-1.575-0.651c-0.757,0-1.353,0.278-1.786,0.833
			c-0.435,0.556-0.651,1.323-0.651,2.302c0,0.894,0.208,1.6,0.625,2.116c0.416,0.518,0.975,0.776,1.677,0.776
			c0.691,0,1.253-0.25,1.685-0.749C369.27,126.722,369.486,126.091,369.486,125.328z"/>
		<path style="fill:#FFFEFD;" d="M374.061,122.595c-0.232,0-0.431-0.083-0.595-0.25c-0.164-0.166-0.246-0.365-0.246-0.598
			c0-0.232,0.082-0.429,0.246-0.591c0.164-0.161,0.362-0.242,0.595-0.242c0.237,0,0.44,0.081,0.605,0.242
			c0.167,0.162,0.25,0.358,0.25,0.591c0,0.232-0.083,0.432-0.25,0.598C374.501,122.512,374.299,122.595,374.061,122.595z
			 M374.061,129.001c-0.232,0-0.431-0.084-0.595-0.25c-0.164-0.167-0.246-0.366-0.246-0.599c0-0.231,0.082-0.433,0.246-0.602
			c0.164-0.169,0.362-0.254,0.595-0.254c0.237,0,0.44,0.085,0.605,0.254c0.167,0.169,0.25,0.37,0.25,0.602
			c0,0.232-0.083,0.432-0.25,0.599C374.501,128.917,374.299,129.001,374.061,129.001z"/>
		<path style="fill:#FFFEFD;" d="M380.635,131.303h-1.105c-1.565-1.787-2.348-3.99-2.348-6.61c0-2.63,0.783-4.868,2.348-6.716h1.121
			c-1.586,1.918-2.378,4.151-2.378,6.7C378.272,127.206,379.06,129.414,380.635,131.303z"/>
	</g>
	<g>
		<g>
			<path style="fill:#EF8A2B;" d="M339.607,167.838h-114c-6.6,0-12-5.4-12-12v-2.986c0-6.6,5.4-12,12-12h114c6.6,0,12,5.4,12,12
				v2.986C351.607,162.438,346.207,167.838,339.607,167.838z"/>
		</g>
		<g>
			<path style="fill:#D16A15;" d="M339.606,168.338H225.607c-6.892,0-12.5-5.607-12.5-12.5v-2.986c0-6.893,5.608-12.5,12.5-12.5
				h113.999c6.893,0,12.5,5.607,12.5,12.5v2.986C352.106,162.731,346.499,168.338,339.606,168.338z M225.607,141.352
				c-6.341,0-11.5,5.159-11.5,11.5v2.986c0,6.341,5.159,11.5,11.5,11.5h113.999c6.341,0,11.5-5.159,11.5-11.5v-2.986
				c0-6.341-5.159-11.5-11.5-11.5H225.607z"/>
		</g>
	</g>
	<g>
		<path style="fill:#F7E2D0;" d="M249.637,159.796c-1.252,0.708-2.643,1.061-4.174,1.061c-1.779,0-3.218-0.574-4.317-1.722
			c-1.099-1.147-1.648-2.667-1.648-4.557c0-1.93,0.61-3.514,1.83-4.751c1.22-1.238,2.767-1.856,4.639-1.856
			c1.356,0,2.496,0.22,3.417,0.66v1.617c-1.008-0.637-2.203-0.956-3.582-0.956c-1.397,0-2.542,0.481-3.435,1.443
			c-0.893,0.962-1.339,2.209-1.339,3.739c0,1.576,0.414,2.815,1.243,3.717c0.829,0.901,1.954,1.352,3.373,1.352
			c0.974,0,1.817-0.194,2.53-0.582v-3.495h-2.73v-1.322h4.191V159.796z"/>
		<path style="fill:#F7E2D0;" d="M258.002,160.858c-1.768,0-3.184-0.583-4.247-1.748c-1.064-1.165-1.595-2.681-1.595-4.547
			c0-2.006,0.542-3.605,1.626-4.8c1.084-1.194,2.559-1.791,4.425-1.791c1.722,0,3.108,0.579,4.161,1.738
			c1.052,1.16,1.578,2.676,1.578,4.548c0,2.034-0.539,3.644-1.617,4.825C261.254,160.266,259.811,160.858,258.002,160.858z
			 M258.107,149.293c-1.31,0-2.374,0.473-3.191,1.417c-0.817,0.945-1.226,2.186-1.226,3.722c0,1.536,0.398,2.773,1.195,3.708
			c0.797,0.937,1.836,1.404,3.117,1.404c1.368,0,2.446-0.446,3.234-1.339c0.789-0.893,1.183-2.142,1.183-3.747
			c0-1.646-0.382-2.919-1.147-3.817C260.507,149.742,259.452,149.293,258.107,149.293z"/>
		<path style="fill:#F7E2D0;" d="M281.543,160.649h-1.461v-5.686h-6.452v5.686h-1.461V148.18h1.461v5.47h6.452v-5.47h1.461V160.649z
			"/>
		<path style="fill:#F7E2D0;" d="M290.283,160.858c-1.768,0-3.184-0.583-4.247-1.748c-1.064-1.165-1.596-2.681-1.596-4.547
			c0-2.006,0.542-3.605,1.626-4.8c1.084-1.194,2.559-1.791,4.426-1.791c1.722,0,3.108,0.579,4.16,1.738
			c1.052,1.16,1.578,2.676,1.578,4.548c0,2.034-0.539,3.644-1.617,4.825C293.535,160.266,292.092,160.858,290.283,160.858z
			 M290.388,149.293c-1.311,0-2.374,0.473-3.191,1.417c-0.817,0.945-1.226,2.186-1.226,3.722c0,1.536,0.398,2.773,1.195,3.708
			c0.797,0.937,1.836,1.404,3.117,1.404c1.368,0,2.446-0.446,3.234-1.339c0.788-0.893,1.183-2.142,1.183-3.747
			c0-1.646-0.383-2.919-1.147-3.817C292.787,149.742,291.732,149.293,290.388,149.293z"/>
		<path style="fill:#F7E2D0;" d="M311.84,160.649h-1.452v-8.364c0-0.661,0.04-1.47,0.122-2.426h-0.035
			c-0.14,0.563-0.264,0.965-0.374,1.208l-4.261,9.582h-0.713l-4.252-9.512c-0.121-0.278-0.246-0.705-0.373-1.278h-0.035
			c0.046,0.498,0.069,1.313,0.069,2.443v8.347h-1.408V148.18h1.93l3.826,8.695c0.296,0.667,0.487,1.165,0.574,1.495h0.052
			c0.249-0.684,0.449-1.193,0.6-1.53l3.904-8.66h1.826V160.649z"/>
		<path style="fill:#F7E2D0;" d="M322.17,160.649h-6.607V148.18h6.33v1.322h-4.869v4.148h4.504v1.313h-4.504v4.365h5.146V160.649z"
			/>
	</g>
</g>
<g>
	<rect y="220.444" style="fill:#F5F9FC;" width="458.667" height="21"/>
</g>
<g>
	<path style="fill:#F5F9FC;" d="M494.165,269.944h-4c-21.539,0-39-17.461-39-39v0c0-21.539,17.461-39,39-39h4V269.944z"/>
</g>
<g>
	<path style="fill:#F5F9FC;" d="M545.165,212.944h-37c-4.4,0-8-3.6-8-8l0,0c0-4.4,3.6-8,8-8h37c4.4,0,8,3.6,8,8l0,0
		C553.165,209.344,549.565,212.944,545.165,212.944z"/>
</g>
<g>
	<path style="fill:#F5F9FC;" d="M545.165,262.944h-37c-4.4,0-8-3.6-8-8l0,0c0-4.4,3.6-8,8-8h37c4.4,0,8,3.6,8,8l0,0
		C553.165,259.344,549.565,262.944,545.165,262.944z"/>
</g>
<polygon style="fill:#795AA4;" points="238.426,218 225.663,227.155 232.958,230.722 223.204,234.425 232.958,237.656 
	219.388,243.444 334.03,243.444 328.519,238.463 334.03,233.617 328.519,230.722 334.03,225.54 322.24,222.309 334.03,218 "/>
<polygon style="fill:#EF8A2B;" points="236.524,212.944 229.333,204.944 232.958,200.667 "/>
<polygon style="fill:#EF8A2B;" points="260.95,224.667 268.171,200.667 278.543,206.805 "/>
<polygon style="fill:#EF8A2B;" points="252.953,238.667 265.108,258 259.031,262.944 "/>
<polygon style="fill:#EF8A2B;" points="312.372,221.352 291.558,208.928 297.686,201.333 "/>
<polygon style="fill:#EF8A2B;" points="286.669,263.901 306.583,242.026 296.027,265.638 "/>
<polygon style="fill:#EF8A2B;" points="303.386,230.38 296.76,241.443 293.207,235.392 "/>
<polygon style="fill:#EF8A2B;" points="277.403,250.406 267.088,238.865 281.197,243.891 "/>
<polygon style="fill:#EF8A2B;" points="322.24,238.667 319.17,250.805 325.333,250.805 "/>
<polygon style="fill:#EF8A2B;" points="236.524,241.444 246.637,254.944 236.524,255.694 "/>
<polygon style="fill:#EF8A2B;" points="242.88,222.783 249.878,224.667 242.88,226.551 240.997,233.548 239.113,226.551 
	232.116,224.667 239.113,222.783 240.997,215.786 "/>
<polygon style="fill:#EF8A2B;" points="325.397,260.324 330.379,261.666 325.397,263.007 324.055,267.99 322.713,263.007 
	317.731,261.666 322.713,260.324 324.055,255.341 "/>
<polygon style="fill:#EF8A2B;" points="288.677,216.658 293.66,218 288.677,219.342 287.335,224.324 285.994,219.342 281.011,218 
	285.994,216.658 287.335,211.676 "/>
</svg>
